<svg width="375" height="76" viewBox="0 0 375 76" fill="none" xmlns="http://www.w3.org/2000/svg">
<rect width="375" height="76" fill="#0A61F7"/>
<path d="M109.651 46.9525C107.938 46.9525 106.386 46.5834 104.993 45.8453C103.617 45.0912 102.528 44.0562 101.728 42.7404C100.944 41.4086 100.552 39.9084 100.552 38.2396C100.552 36.5708 100.944 35.0786 101.728 33.7628C102.528 32.431 103.617 31.3961 104.993 30.658C106.386 29.9038 107.946 29.5267 109.675 29.5267C111.132 29.5267 112.444 29.7835 113.612 30.2969C114.797 30.8104 115.789 31.5485 116.589 32.5113L114.093 34.8218C112.956 33.5061 111.548 32.8482 109.867 32.8482C108.827 32.8482 107.898 33.0809 107.082 33.5462C106.266 33.9955 105.626 34.6293 105.161 35.4476C104.713 36.266 104.489 37.1966 104.489 38.2396C104.489 39.2826 104.713 40.2132 105.161 41.0316C105.626 41.8499 106.266 42.4917 107.082 42.9571C107.898 43.4063 108.827 43.631 109.867 43.631C111.548 43.631 112.956 42.9651 114.093 41.6333L116.589 43.9439C115.789 44.9227 114.797 45.6688 113.612 46.1823C112.428 46.6957 111.108 46.9525 109.651 46.9525Z" fill="white"/>
<path d="M126.542 46.9525C124.141 46.9525 122.268 46.2866 120.924 44.9548C119.595 43.623 118.931 41.7215 118.931 39.2505V29.8156H122.821V39.1061C122.821 42.1227 124.069 43.631 126.566 43.631C127.782 43.631 128.711 43.27 129.351 42.5479C129.991 41.8098 130.311 40.6625 130.311 39.1061V29.8156H134.153V39.2505C134.153 41.7215 133.48 43.623 132.136 44.9548C130.807 46.2866 128.943 46.9525 126.542 46.9525Z" fill="white"/>
<path d="M150.336 37.9026C151.297 38.2075 152.049 38.721 152.593 39.443C153.137 40.149 153.41 41.0235 153.41 42.0665C153.41 43.5427 152.833 44.682 151.681 45.4843C150.545 46.2705 148.88 46.6636 146.687 46.6636H137.996V29.8156H146.207C148.256 29.8156 149.824 30.2087 150.913 30.9949C152.017 31.7812 152.569 32.8482 152.569 34.1961C152.569 35.0144 152.369 35.7445 151.969 36.3863C151.585 37.0281 151.041 37.5336 150.336 37.9026ZM141.861 32.7519V36.7233H145.727C146.687 36.7233 147.415 36.5548 147.912 36.2178C148.408 35.8809 148.656 35.3834 148.656 34.7256C148.656 34.0677 148.408 33.5783 147.912 33.2574C147.415 32.9204 146.687 32.7519 145.727 32.7519H141.861ZM146.399 43.7273C147.423 43.7273 148.192 43.5588 148.704 43.2218C149.232 42.8849 149.496 42.3634 149.496 41.6574C149.496 40.2614 148.464 39.5634 146.399 39.5634H141.861V43.7273H146.399Z" fill="white"/>
<path d="M167.422 43.0533H159.619L158.131 46.6636H154.145L161.636 29.8156H165.477L172.992 46.6636H168.911L167.422 43.0533ZM166.198 40.0929L163.533 33.6425L160.868 40.0929H166.198Z" fill="white"/>
<path d="M177.373 32.9926H171.995V29.8156H186.64V32.9926H181.262V46.6636H177.373V32.9926Z" fill="white"/>
<path d="M196.637 46.9525C194.893 46.9525 193.316 46.5754 191.908 45.8212C190.515 45.0671 189.419 44.0321 188.618 42.7164C187.834 41.3846 187.442 39.8923 187.442 38.2396C187.442 36.5869 187.834 35.1026 188.618 33.7869C189.419 32.4551 190.515 31.4121 191.908 30.658C193.316 29.9038 194.893 29.5267 196.637 29.5267C198.382 29.5267 199.95 29.9038 201.343 30.658C202.735 31.4121 203.832 32.4551 204.632 33.7869C205.432 35.1026 205.833 36.5869 205.833 38.2396C205.833 39.8923 205.432 41.3846 204.632 42.7164C203.832 44.0321 202.735 45.0671 201.343 45.8212C199.95 46.5754 198.382 46.9525 196.637 46.9525ZM196.637 43.631C197.63 43.631 198.526 43.4063 199.326 42.9571C200.126 42.4917 200.751 41.8499 201.199 41.0316C201.663 40.2132 201.895 39.2826 201.895 38.2396C201.895 37.1966 201.663 36.266 201.199 35.4476C200.751 34.6293 200.126 33.9955 199.326 33.5462C198.526 33.0809 197.63 32.8482 196.637 32.8482C195.645 32.8482 194.749 33.0809 193.948 33.5462C193.148 33.9955 192.516 34.6293 192.052 35.4476C191.603 36.266 191.379 37.1966 191.379 38.2396C191.379 39.2826 191.603 40.2132 192.052 41.0316C192.516 41.8499 193.148 42.4917 193.948 42.9571C194.749 43.4063 195.645 43.631 196.637 43.631Z" fill="white"/>
<path d="M219.463 46.6636L216.222 41.9702H216.03H212.645V46.6636H208.756V29.8156H216.03C217.519 29.8156 218.807 30.0643 219.896 30.5617C221 31.0591 221.848 31.7651 222.44 32.6797C223.033 33.5943 223.329 34.6774 223.329 35.929C223.329 37.1806 223.025 38.2637 222.416 39.1783C221.824 40.0768 220.976 40.7668 219.871 41.2482L223.641 46.6636H219.463ZM219.391 35.929C219.391 34.9823 219.087 34.2602 218.479 33.7628C217.871 33.2494 216.982 32.9926 215.814 32.9926H212.645V38.8654H215.814C216.982 38.8654 217.871 38.6087 218.479 38.0952C219.087 37.5817 219.391 36.8597 219.391 35.929Z" fill="white"/>
<path d="M15 29.8413H18.8833V46.6334H15V29.8413Z" fill="white"/>
<path d="M26.3413 33.0078H20.9718V29.8413H35.5941V33.0078H30.2246V46.6334H26.3413V33.0078Z" fill="white"/>
<path d="M59.9875 29.8413H63.8762V46.6334H59.9875V29.8413Z" fill="white"/>
<path d="M83.2747 29.8413V46.6334H80.0821L71.7046 36.4382V46.6334H67.8639V29.8413H71.0805L79.434 40.0365V29.8413H83.2747Z" fill="white"/>
<path fill-rule="evenodd" clip-rule="evenodd" d="M61.6493 22.7113C63.0927 22.7113 64.2631 23.8817 64.2631 25.3252C64.2631 26.7686 63.0927 27.939 61.6493 27.939C60.2058 27.939 59.0354 26.7686 59.0354 25.3252C59.0354 23.8817 60.2058 22.7113 61.6493 22.7113Z" fill="#FF0808"/>
<path fill-rule="evenodd" clip-rule="evenodd" d="M40.9899 35.3861C42.4775 35.3861 43.683 36.5562 43.683 38C43.683 39.4438 42.4775 40.6138 40.9899 40.6138C39.5024 40.6138 38.2969 39.4438 38.2969 38C38.2969 36.5562 39.5024 35.3861 40.9899 35.3861Z" fill="white"/>
<path fill-rule="evenodd" clip-rule="evenodd" d="M71.6375 60C83.7877 60 93.6375 50.1503 93.6375 38C93.6375 25.8497 83.7877 16 71.6375 16C59.4872 16 49.6375 25.8497 49.6375 38C49.6375 50.1503 59.4872 60 71.6375 60ZM71.6375 62C84.8923 62 95.6375 51.2548 95.6375 38C95.6375 24.7452 84.8923 14 71.6375 14C58.3826 14 47.6375 24.7452 47.6375 38C47.6375 51.2548 58.3826 62 71.6375 62Z" fill="white"/>
<path fill-rule="evenodd" clip-rule="evenodd" d="M320.708 27.5C320.2 27.5 319.713 27.658 319.353 27.9393C318.994 28.2206 318.792 28.6022 318.792 29C318.792 29.3978 318.994 29.7794 319.353 30.0607C319.713 30.342 320.2 30.5 320.708 30.5H353.292C353.8 30.5 354.288 30.342 354.647 30.0607C355.006 29.7794 355.208 29.3978 355.208 29C355.208 28.6022 355.006 28.2206 354.647 27.9393C354.288 27.658 353.8 27.5 353.292 27.5H320.708ZM318.792 38C318.792 37.6022 318.994 37.2206 319.353 36.9393C319.713 36.658 320.2 36.5 320.708 36.5H353.292C353.8 36.5 354.288 36.658 354.647 36.9393C355.006 37.2206 355.208 37.6022 355.208 38C355.208 38.3978 355.006 38.7794 354.647 39.0607C354.288 39.342 353.8 39.5 353.292 39.5H320.708C320.2 39.5 319.713 39.342 319.353 39.0607C318.994 38.7794 318.792 38.3978 318.792 38ZM318.792 47.0015C318.792 46.6037 318.994 46.2221 319.353 45.9408C319.713 45.6595 320.2 45.5015 320.708 45.5015H353.292C353.8 45.5015 354.288 45.6595 354.647 45.9408C355.006 46.2221 355.208 46.6037 355.208 47.0015C355.208 47.3993 355.006 47.7809 354.647 48.0622C354.288 48.3435 353.8 48.5015 353.292 48.5015H320.708C320.2 48.5015 319.713 48.3435 319.353 48.0622C318.994 47.7809 318.792 47.3993 318.792 47.0015Z" fill="white"/>
</svg>
